<svg xmlns="http://www.w3.org/2000/svg" width="2499.125" height="1074.966" viewBox="0 0 2499.125 1074.966">
  <g id="Grupo_1656" data-name="Grupo 1656" transform="translate(244.763 -870.914)">
    <path id="Oval" d="M388.334,27.942c214.471,0,883.405-174.405,883.405,40.066S700.668,458.017,388.334,492.017s-696.53-21.529-696.53-236S173.863,27.942,388.334,27.942Z" transform="translate(242.088 1211.159) rotate(11)" fill="#fff"/>
    <path id="Trazado_4" data-name="Trazado 4" d="M6610,865.914s328,220.385,756,133.994S7854,788,8564,957.595s22,544.792,22,544.792S8196.1,1699.014,7650,1724c-350.967,16.058-866.8-35.253-1054-262.164C6116,880.019,6610,865.914,6610,865.914Z" transform="translate(-6631 5)" fill="#f7f8fa"/>
    <path id="Sustracción_6" data-name="Sustracción 6" d="M7192.232,6519.712v0a851.005,851.005,0,0,0,68.268-54.583c11.483-10.271,22.233-20.6,31.95-30.7,10.475-10.886,20.025-21.789,28.383-32.4a306.13,306.13,0,0,0,23.24-33.692,208.928,208.928,0,0,0,16.519-34.562,146.369,146.369,0,0,0,8.221-35.012,120.717,120.717,0,0,0,.5-17.544,113.65,113.65,0,0,0-2.161-17.5,116.642,116.642,0,0,0-9.019-26.787,140.118,140.118,0,0,0-16.557-26.365,191.931,191.931,0,0,0-24.817-25.75,282.564,282.564,0,0,0-33.8-24.943,425.854,425.854,0,0,0-43.512-23.944c-16.359-7.87-34.509-15.525-53.945-22.753-19.981-7.432-41.884-14.622-65.1-21.371-23.84-6.93-49.741-13.589-76.982-19.795-32.2-7.334-63.7-14.234-93.629-20.508-29.613-6.207-58.593-11.992-86.135-17.194-27.189-5.136-53.839-9.866-79.209-14.06-25-4.133-49.516-7.868-72.854-11.1-89.4-12.392-167.667-18.416-239.27-18.416a1130.471,1130.471,0,0,0-137.518,8.095c-20.535,2.492-40.806,5.527-61.971,9.279-19.2,3.4-38.772,7.335-59.839,12.021,30.188-8.141,54.834-14.382,77.563-19.644,27.7-6.411,53.308-11.54,78.293-15.679,28.067-4.649,55.239-8.045,83.069-10.383,14.641-1.23,29.643-2.169,44.589-2.79,15.447-.642,31.361-.967,47.3-.967,70.584,0,147.732,6.223,235.85,19.025,23.025,3.345,47.187,7.2,71.813,11.471,25.018,4.335,51.288,9.222,78.079,14.527,27.146,5.374,55.713,11.352,84.911,17.767,29.508,6.483,60.564,13.613,92.3,21.191,27.4,6.542,53.406,13.511,77.3,20.713,23.25,7.009,45.133,14.431,65.041,22.06,19.353,7.416,37.369,15.229,53.55,23.224a414.174,414.174,0,0,1,42.824,24.206,269.134,269.134,0,0,1,32.863,25.007A179.1,179.1,0,0,1,7402,6195.476a128.946,128.946,0,0,1,15.234,26.063,105.516,105.516,0,0,1,8.662,46.379,118.357,118.357,0,0,1-2.556,20.023,141.359,141.359,0,0,1-5.87,19.905,176.36,176.36,0,0,1-8.849,19.709,251.031,251.031,0,0,1-25.293,38.51,394.367,394.367,0,0,1-33.183,36.768c-21.9,21.57-48.581,43.694-79.3,65.757C7246.8,6485.867,7220.352,6503.067,7192.232,6519.712ZM5638.717,6130.735h-.034c-32.378,0-65.506-1.521-98.463-4.519-30.687-2.79-61.989-6.93-93.039-12.3-28.666-4.962-57.8-11.093-86.579-18.223-26.29-6.512-52.9-14.007-79.082-22.276a1345.209,1345.209,0,0,1-131.53-49.249c-17.119-7.456-34.067-15.275-50.375-23.241-13.365-6.528-26.4-13.2-38.734-19.83a331.458,331.458,0,0,1,34.832-9.938c9.636-2.2,19.5-4.027,29.309-5.43a278.431,278.431,0,0,1,27.741-2.727c.146.1,14.793,9.874,40.917,24.062,15.434,8.382,31.853,16.68,48.8,24.663,21.185,9.979,43.261,19.491,65.615,28.273a1129.739,1129.739,0,0,0,175.417,52.937c17.192,3.691,34.66,7.005,51.92,9.851,18.165,2.994,36.588,5.549,54.757,7.594,19.059,2.146,38.37,3.79,57.4,4.888,19.885,1.147,40.019,1.729,59.842,1.729,28.613,0,57.5-1.212,85.867-3.6,29.9-2.52,60.052-6.419,89.61-11.59-18.271,3.906-36.716,7.651-54.821,11.136-15.935,3.067-32.207,5.774-48.365,8.047-15.752,2.215-31.816,4.076-47.744,5.531C5701.369,6129.316,5669.991,6130.735,5638.717,6130.735Z" transform="translate(-5173.764 -5092.086)" fill="#fff"/>
  </g>
</svg>
