<svg xmlns="http://www.w3.org/2000/svg" viewBox="0 0 722.89 129.39"><defs><style>.cls-1{isolation:isolate;}.cls-2{fill:#1c1c21;}.cls-3{fill:#ffd917;}.cls-4{fill:#ff1a75;}</style></defs><title>Recurso 1</title><g id="Capa_2" data-name="Capa 2"><g id="Capa_1-2" data-name="Capa 1"><g id="iuPayme" class="cls-1"><g class="cls-1"><path class="cls-2" d="M227.37,34.05,216,98.57H193.33l11.38-64.52Zm-19.5-22.71a14.49,14.49,0,0,1,5.58-4.89,17.13,17.13,0,0,1,7.94-1.84c3.52,0,6.28.89,8.28,2.65a8.78,8.78,0,0,1,3,6.9,12.08,12.08,0,0,1-2,6.67,13.86,13.86,0,0,1-5.52,4.88,17.1,17.1,0,0,1-7.87,1.79q-5.42,0-8.4-2.65a8.64,8.64,0,0,1-3-6.78A12,12,0,0,1,207.87,11.34Z"/><path class="cls-2" d="M305.1,34.05,293.72,98.57H271.07l1.84-10.7a27.7,27.7,0,0,1-9.61,8.22,27,27,0,0,1-12.82,3q-9.31,0-14.49-5.4t-5.17-15.07a40.48,40.48,0,0,1,.69-7.24l6.67-37.38H260.6l-6.09,34.62a13.48,13.48,0,0,0-.23,2.87,8.17,8.17,0,0,0,9,9,12.18,12.18,0,0,0,8.56-3.22,15.46,15.46,0,0,0,4.54-9.08v.57l6.1-34.73Z"/><path class="cls-2" d="M332,71.31,327.3,98.57H304.64L318.9,17.15h33.81q12.89,0,19.5,5.69t6.61,15.58a36.37,36.37,0,0,1-.58,6,32.22,32.22,0,0,1-5.92,13.8,31,31,0,0,1-12,9.6,39.84,39.84,0,0,1-17.13,3.51Zm19.84-20.24a10.68,10.68,0,0,0,3.51-6.67,19.31,19.31,0,0,0,.23-2.3q0-6.66-8.51-6.67h-8.63l-3.22,18.06h8.63Q349,53.49,351.85,51.07Z"/><path class="cls-2" d="M425.68,36.24a14,14,0,0,1,6.27,8l1.84-10.24h22.54l-11.5,64.52H422.4l1.84-10.24a23.17,23.17,0,0,1-8.74,8,25.58,25.58,0,0,1-12.42,3q-10.45,0-16.38-6.73T380.77,74a60.11,60.11,0,0,1,.92-9.66,43.06,43.06,0,0,1,6.44-16.56A33.35,33.35,0,0,1,399.52,37a28.39,28.39,0,0,1,14.14-3.74A22.29,22.29,0,0,1,425.68,36.24Zm-16.1,20.3a16.72,16.72,0,0,0-5,9.71,17,17,0,0,0-.35,3.34q0,4.83,2.65,7.41A9.73,9.73,0,0,0,414,79.59,13.18,13.18,0,0,0,423,76a16.29,16.29,0,0,0,5-9.78,17,17,0,0,0,.34-3.33q0-4.72-2.64-7.3a9.59,9.59,0,0,0-7-2.59A13.13,13.13,0,0,0,409.58,56.54Z"/><path class="cls-2" d="M485.31,34.05l7.47,36.11L512,34.05h25l-57.61,95.34H454.49l21.73-33.58-16-61.76Z"/><path class="cls-2" d="M644.18,39q5.58,5.52,5.58,15.41a49.62,49.62,0,0,1-.58,6.67l-6.67,37.49H620L626.07,64a25.13,25.13,0,0,0,.23-2.64,7.81,7.81,0,0,0-2.42-6.1A9.44,9.44,0,0,0,617.33,53,12.48,12.48,0,0,0,609,55.9,13.15,13.15,0,0,0,604.68,64l-6.21,34.62H575.93L582.14,64c.15-1.22.23-2,.23-2.41A8.12,8.12,0,0,0,580,55.27,9.39,9.39,0,0,0,573.28,53,12.48,12.48,0,0,0,564.89,56a13.4,13.4,0,0,0-4.37,8.34v-.46l-6.1,34.73H531.88l11.27-64.52h22.66l-1.73,9.78a26.11,26.11,0,0,1,21.16-10.35,21.86,21.86,0,0,1,12.19,3.22,17.34,17.34,0,0,1,7,9.2,33.62,33.62,0,0,1,10.58-9,27,27,0,0,1,13.11-3.39Q638.6,33.48,644.18,39Z"/><path class="cls-2" d="M715.53,40q7.37,6.8,7.36,18.4a45.55,45.55,0,0,1-.57,6.67,49.38,49.38,0,0,1-1.61,5.29H678.16A22.1,22.1,0,0,0,678,73q0,8.28,7.71,8.28a10.45,10.45,0,0,0,5.81-1.61,10.31,10.31,0,0,0,3.73-4.26h23.92A35.71,35.71,0,0,1,705.76,92.7a37.59,37.59,0,0,1-22.08,6.67q-12.66,0-20-7T656.31,73a47.6,47.6,0,0,1,.69-7.82,39,39,0,0,1,7.19-17A36.36,36.36,0,0,1,677.7,37.1a40.17,40.17,0,0,1,17.59-3.85Q708.18,33.25,715.53,40Zm-15.18,18.4a6.81,6.81,0,0,0-2.3-5.58A8.93,8.93,0,0,0,692.19,51a12.1,12.1,0,0,0-7.71,2.53,13.93,13.93,0,0,0-4.6,7.47h20.24A10.5,10.5,0,0,0,700.35,58.43Z"/></g></g><path class="cls-3" d="M0,0H113a52,52,0,0,1,52,52v0a0,0,0,0,1,0,0H52A52,52,0,0,1,0,0V0A0,0,0,0,1,0,0Z"/><path class="cls-4" d="M99,68h66a0,0,0,0,1,0,0v0a52,52,0,0,1-52,52H47a0,0,0,0,1,0,0v0A52,52,0,0,1,99,68Z"/></g></g></svg>