<svg xmlns="http://www.w3.org/2000/svg" viewBox="0 0 329.58 120"><defs><style>.cls-1{fill:#1c1c21;}</style></defs><g id="Layer_2" data-name="Layer 2"><g id="Capa_1" data-name="Capa 1"><path class="cls-1" d="M233.1,36.76,219,116.82H190.86L205,36.76ZM208.91,8.57a18,18,0,0,1,6.92-6.07A21.17,21.17,0,0,1,225.68.22Q232.24.22,236,3.5a10.9,10.9,0,0,1,3.72,8.57,15,15,0,0,1-2.5,8.27,17.42,17.42,0,0,1-6.85,6.07,21.35,21.35,0,0,1-9.78,2.21q-6.71,0-10.42-3.28a10.75,10.75,0,0,1-3.71-8.42A14.78,14.78,0,0,1,208.91,8.57Z"/><path class="cls-1" d="M329.58,36.76l-14.13,80.06H287.33l2.29-13.27a34.4,34.4,0,0,1-11.92,10.2,33.65,33.65,0,0,1-15.92,3.79q-11.55,0-18-6.71t-6.42-18.7a50.43,50.43,0,0,1,.86-9l8.27-46.38h27.83l-7.56,42.95a17.34,17.34,0,0,0-.29,3.57q0,5.28,2.93,8.21t8.21,2.92a15.16,15.16,0,0,0,10.63-4q4.35-4,5.64-11.28v.72l7.56-43.1Z"/><path class="cls-1" d="M0,0H113a52,52,0,0,1,52,52v0a0,0,0,0,1,0,0H52A52,52,0,0,1,0,0V0A0,0,0,0,1,0,0Z"/><path class="cls-1" d="M99,68h66a0,0,0,0,1,0,0v0a52,52,0,0,1-52,52H47a0,0,0,0,1,0,0v0A52,52,0,0,1,99,68Z"/></g></g></svg>